<?xml version="1.0" encoding="UTF-8" ?>
<svg version="1.1" width="160" height="160" xmlns="http://www.w3.org/2000/svg" shape-rendering="crispEdges">
<rect x="80" y="16" width="8" height="8" fill="#FDFDFD" />
<rect x="88" y="16" width="8" height="8" fill="#FDFDFD" />
<rect x="96" y="16" width="8" height="8" fill="#FDFDFD" />
<rect x="104" y="16" width="8" height="8" fill="#FDFDFD" />
<rect x="72" y="24" width="8" height="8" fill="#FDFDFD" />
<rect x="80" y="24" width="8" height="8" fill="#FDFDFD" />
<rect x="88" y="24" width="8" height="8" fill="#2A110C" />
<rect x="96" y="24" width="8" height="8" fill="#2A110C" />
<rect x="104" y="24" width="8" height="8" fill="#FDFDFD" />
<rect x="40" y="32" width="8" height="8" fill="#FDFDFD" />
<rect x="48" y="32" width="8" height="8" fill="#FDFDFD" />
<rect x="56" y="32" width="8" height="8" fill="#FDFDFD" />
<rect x="64" y="32" width="8" height="8" fill="#FDFDFD" />
<rect x="72" y="32" width="8" height="8" fill="#FDFDFD" />
<rect x="80" y="32" width="8" height="8" fill="#2A110C" />
<rect x="88" y="32" width="8" height="8" fill="#FDFDFD" />
<rect x="96" y="32" width="8" height="8" fill="#FDFDFD" />
<rect x="104" y="32" width="8" height="8" fill="#FDFDFD" />
<rect x="112" y="32" width="8" height="8" fill="#FDFDFD" />
<rect x="32" y="40" width="8" height="8" fill="#FDFDFD" />
<rect x="40" y="40" width="8" height="8" fill="#FDFDFD" />
<rect x="48" y="40" width="8" height="8" fill="#2A110C" />
<rect x="56" y="40" width="8" height="8" fill="#2A110C" />
<rect x="64" y="40" width="8" height="8" fill="#2A110C" />
<rect x="72" y="40" width="8" height="8" fill="#2A110C" />
<rect x="80" y="40" width="8" height="8" fill="#2A110C" />
<rect x="88" y="40" width="8" height="8" fill="#2A110C" />
<rect x="96" y="40" width="8" height="8" fill="#2A110C" />
<rect x="104" y="40" width="8" height="8" fill="#2A110C" />
<rect x="112" y="40" width="8" height="8" fill="#FDFDFD" />
<rect x="120" y="40" width="8" height="8" fill="#FDFDFD" />
<rect x="24" y="48" width="8" height="8" fill="#FDFDFD" />
<rect x="32" y="48" width="8" height="8" fill="#FDFDFD" />
<rect x="40" y="48" width="8" height="8" fill="#2A110C" />
<rect x="48" y="48" width="8" height="8" fill="#FAAD1F" />
<rect x="56" y="48" width="8" height="8" fill="#F1461B" />
<rect x="64" y="48" width="8" height="8" fill="#FAAD1F" />
<rect x="72" y="48" width="8" height="8" fill="#FAAD1F" />
<rect x="80" y="48" width="8" height="8" fill="#FAAD1F" />
<rect x="88" y="48" width="8" height="8" fill="#FAAD1F" />
<rect x="96" y="48" width="8" height="8" fill="#F1461B" />
<rect x="104" y="48" width="8" height="8" fill="#FAAD1F" />
<rect x="112" y="48" width="8" height="8" fill="#2A110C" />
<rect x="120" y="48" width="8" height="8" fill="#FDFDFD" />
<rect x="128" y="48" width="8" height="8" fill="#FDFDFD" />
<rect x="24" y="56" width="8" height="8" fill="#FDFDFD" />
<rect x="32" y="56" width="8" height="8" fill="#2A110C" />
<rect x="40" y="56" width="8" height="8" fill="#FAAD1F" />
<rect x="48" y="56" width="8" height="8" fill="#FDFDFD" />
<rect x="56" y="56" width="8" height="8" fill="#F1461B" />
<rect x="64" y="56" width="8" height="8" fill="#FAAD1F" />
<rect x="72" y="56" width="8" height="8" fill="#FAAD1F" />
<rect x="80" y="56" width="8" height="8" fill="#FAAD1F" />
<rect x="88" y="56" width="8" height="8" fill="#FAAD1F" />
<rect x="96" y="56" width="8" height="8" fill="#F1461B" />
<rect x="104" y="56" width="8" height="8" fill="#FAAD1F" />
<rect x="112" y="56" width="8" height="8" fill="#FAAD1F" />
<rect x="120" y="56" width="8" height="8" fill="#2A110C" />
<rect x="128" y="56" width="8" height="8" fill="#FDFDFD" />
<rect x="16" y="64" width="8" height="8" fill="#FDFDFD" />
<rect x="24" y="64" width="8" height="8" fill="#FDFDFD" />
<rect x="32" y="64" width="8" height="8" fill="#2A110C" />
<rect x="40" y="64" width="8" height="8" fill="#FDFDFD" />
<rect x="48" y="64" width="8" height="8" fill="#2A110C" />
<rect x="56" y="64" width="8" height="8" fill="#2A110C" />
<rect x="64" y="64" width="8" height="8" fill="#2A110C" />
<rect x="72" y="64" width="8" height="8" fill="#2A110C" />
<rect x="80" y="64" width="8" height="8" fill="#2A110C" />
<rect x="88" y="64" width="8" height="8" fill="#2A110C" />
<rect x="96" y="64" width="8" height="8" fill="#2A110C" />
<rect x="104" y="64" width="8" height="8" fill="#2A110C" />
<rect x="112" y="64" width="8" height="8" fill="#FAAD1F" />
<rect x="120" y="64" width="8" height="8" fill="#2A110C" />
<rect x="128" y="64" width="8" height="8" fill="#FDFDFD" />
<rect x="136" y="64" width="8" height="8" fill="#FDFDFD" />
<rect x="16" y="72" width="8" height="8" fill="#FDFDFD" />
<rect x="24" y="72" width="8" height="8" fill="#2A110C" />
<rect x="32" y="72" width="8" height="8" fill="#2A110C" />
<rect x="40" y="72" width="8" height="8" fill="#2A110C" />
<rect x="48" y="72" width="8" height="8" fill="#2A110C" />
<rect x="56" y="72" width="8" height="8" fill="#2A110C" />
<rect x="64" y="72" width="8" height="8" fill="#FDFDFD" />
<rect x="72" y="72" width="8" height="8" fill="#2A110C" />
<rect x="80" y="72" width="8" height="8" fill="#2A110C" />
<rect x="88" y="72" width="8" height="8" fill="#FDFDFD" />
<rect x="96" y="72" width="8" height="8" fill="#2A110C" />
<rect x="104" y="72" width="8" height="8" fill="#2A110C" />
<rect x="112" y="72" width="8" height="8" fill="#2A110C" />
<rect x="120" y="72" width="8" height="8" fill="#2A110C" />
<rect x="128" y="72" width="8" height="8" fill="#2A110C" />
<rect x="136" y="72" width="8" height="8" fill="#FDFDFD" />
<rect x="16" y="80" width="8" height="8" fill="#FDFDFD" />
<rect x="24" y="80" width="8" height="8" fill="#2A110C" />
<rect x="32" y="80" width="8" height="8" fill="#2A110C" />
<rect x="40" y="80" width="8" height="8" fill="#2A110C" />
<rect x="48" y="80" width="8" height="8" fill="#2A110C" />
<rect x="56" y="80" width="8" height="8" fill="#2A110C" />
<rect x="64" y="80" width="8" height="8" fill="#2A110C" />
<rect x="72" y="80" width="8" height="8" fill="#2A110C" />
<rect x="80" y="80" width="8" height="8" fill="#2A110C" />
<rect x="88" y="80" width="8" height="8" fill="#2A110C" />
<rect x="96" y="80" width="8" height="8" fill="#2A110C" />
<rect x="104" y="80" width="8" height="8" fill="#2A110C" />
<rect x="112" y="80" width="8" height="8" fill="#2A110C" />
<rect x="120" y="80" width="8" height="8" fill="#2A110C" />
<rect x="128" y="80" width="8" height="8" fill="#2A110C" />
<rect x="136" y="80" width="8" height="8" fill="#FDFDFD" />
<rect x="16" y="88" width="8" height="8" fill="#FDFDFD" />
<rect x="24" y="88" width="8" height="8" fill="#2A110C" />
<rect x="32" y="88" width="8" height="8" fill="#2A110C" />
<rect x="40" y="88" width="8" height="8" fill="#2A110C" />
<rect x="48" y="88" width="8" height="8" fill="#F1461B" />
<rect x="56" y="88" width="8" height="8" fill="#FAAD1F" />
<rect x="64" y="88" width="8" height="8" fill="#FAAD1F" />
<rect x="72" y="88" width="8" height="8" fill="#F1461B" />
<rect x="80" y="88" width="8" height="8" fill="#F1461B" />
<rect x="88" y="88" width="8" height="8" fill="#FAAD1F" />
<rect x="96" y="88" width="8" height="8" fill="#FAAD1F" />
<rect x="104" y="88" width="8" height="8" fill="#F1461B" />
<rect x="112" y="88" width="8" height="8" fill="#2A110C" />
<rect x="120" y="88" width="8" height="8" fill="#2A110C" />
<rect x="128" y="88" width="8" height="8" fill="#2A110C" />
<rect x="136" y="88" width="8" height="8" fill="#FDFDFD" />
<rect x="16" y="96" width="8" height="8" fill="#FDFDFD" />
<rect x="24" y="96" width="8" height="8" fill="#2A110C" />
<rect x="32" y="96" width="8" height="8" fill="#FAAD1F" />
<rect x="40" y="96" width="8" height="8" fill="#FAAD1F" />
<rect x="48" y="96" width="8" height="8" fill="#F1461B" />
<rect x="56" y="96" width="8" height="8" fill="#FAAD1F" />
<rect x="64" y="96" width="8" height="8" fill="#F1461B" />
<rect x="72" y="96" width="8" height="8" fill="#F1461B" />
<rect x="80" y="96" width="8" height="8" fill="#F1461B" />
<rect x="88" y="96" width="8" height="8" fill="#F1461B" />
<rect x="96" y="96" width="8" height="8" fill="#FAAD1F" />
<rect x="104" y="96" width="8" height="8" fill="#F1461B" />
<rect x="112" y="96" width="8" height="8" fill="#FAAD1F" />
<rect x="120" y="96" width="8" height="8" fill="#FAAD1F" />
<rect x="128" y="96" width="8" height="8" fill="#2A110C" />
<rect x="136" y="96" width="8" height="8" fill="#FDFDFD" />
<rect x="16" y="104" width="8" height="8" fill="#FDFDFD" />
<rect x="24" y="104" width="8" height="8" fill="#FDFDFD" />
<rect x="32" y="104" width="8" height="8" fill="#2A110C" />
<rect x="40" y="104" width="8" height="8" fill="#FAAD1F" />
<rect x="48" y="104" width="8" height="8" fill="#F1461B" />
<rect x="56" y="104" width="8" height="8" fill="#FAAD1F" />
<rect x="64" y="104" width="8" height="8" fill="#FAAD1F" />
<rect x="72" y="104" width="8" height="8" fill="#FAAD1F" />
<rect x="80" y="104" width="8" height="8" fill="#FAAD1F" />
<rect x="88" y="104" width="8" height="8" fill="#FAAD1F" />
<rect x="96" y="104" width="8" height="8" fill="#FAAD1F" />
<rect x="104" y="104" width="8" height="8" fill="#F1461B" />
<rect x="112" y="104" width="8" height="8" fill="#FAAD1F" />
<rect x="120" y="104" width="8" height="8" fill="#2A110C" />
<rect x="128" y="104" width="8" height="8" fill="#FDFDFD" />
<rect x="136" y="104" width="8" height="8" fill="#FDFDFD" />
<rect x="24" y="112" width="8" height="8" fill="#FDFDFD" />
<rect x="32" y="112" width="8" height="8" fill="#2A110C" />
<rect x="40" y="112" width="8" height="8" fill="#FAAD1F" />
<rect x="48" y="112" width="8" height="8" fill="#FAAD1F" />
<rect x="56" y="112" width="8" height="8" fill="#F1461B" />
<rect x="64" y="112" width="8" height="8" fill="#FAAD1F" />
<rect x="72" y="112" width="8" height="8" fill="#FAAD1F" />
<rect x="80" y="112" width="8" height="8" fill="#FAAD1F" />
<rect x="88" y="112" width="8" height="8" fill="#FAAD1F" />
<rect x="96" y="112" width="8" height="8" fill="#F1461B" />
<rect x="104" y="112" width="8" height="8" fill="#FAAD1F" />
<rect x="112" y="112" width="8" height="8" fill="#FAAD1F" />
<rect x="120" y="112" width="8" height="8" fill="#2A110C" />
<rect x="128" y="112" width="8" height="8" fill="#FDFDFD" />
<rect x="24" y="120" width="8" height="8" fill="#FDFDFD" />
<rect x="32" y="120" width="8" height="8" fill="#FDFDFD" />
<rect x="40" y="120" width="8" height="8" fill="#2A110C" />
<rect x="48" y="120" width="8" height="8" fill="#FAAD1F" />
<rect x="56" y="120" width="8" height="8" fill="#F1461B" />
<rect x="64" y="120" width="8" height="8" fill="#FAAD1F" />
<rect x="72" y="120" width="8" height="8" fill="#FAAD1F" />
<rect x="80" y="120" width="8" height="8" fill="#FAAD1F" />
<rect x="88" y="120" width="8" height="8" fill="#FAAD1F" />
<rect x="96" y="120" width="8" height="8" fill="#F1461B" />
<rect x="104" y="120" width="8" height="8" fill="#FAAD1F" />
<rect x="112" y="120" width="8" height="8" fill="#2A110C" />
<rect x="120" y="120" width="8" height="8" fill="#FDFDFD" />
<rect x="128" y="120" width="8" height="8" fill="#FDFDFD" />
<rect x="32" y="128" width="8" height="8" fill="#FDFDFD" />
<rect x="40" y="128" width="8" height="8" fill="#FDFDFD" />
<rect x="48" y="128" width="8" height="8" fill="#2A110C" />
<rect x="56" y="128" width="8" height="8" fill="#2A110C" />
<rect x="64" y="128" width="8" height="8" fill="#2A110C" />
<rect x="72" y="128" width="8" height="8" fill="#2A110C" />
<rect x="80" y="128" width="8" height="8" fill="#2A110C" />
<rect x="88" y="128" width="8" height="8" fill="#2A110C" />
<rect x="96" y="128" width="8" height="8" fill="#2A110C" />
<rect x="104" y="128" width="8" height="8" fill="#2A110C" />
<rect x="112" y="128" width="8" height="8" fill="#FDFDFD" />
<rect x="120" y="128" width="8" height="8" fill="#FDFDFD" />
<rect x="40" y="136" width="8" height="8" fill="#FDFDFD" />
<rect x="48" y="136" width="8" height="8" fill="#FDFDFD" />
<rect x="56" y="136" width="8" height="8" fill="#FDFDFD" />
<rect x="64" y="136" width="8" height="8" fill="#FDFDFD" />
<rect x="72" y="136" width="8" height="8" fill="#FDFDFD" />
<rect x="80" y="136" width="8" height="8" fill="#FDFDFD" />
<rect x="88" y="136" width="8" height="8" fill="#FDFDFD" />
<rect x="96" y="136" width="8" height="8" fill="#FDFDFD" />
<rect x="104" y="136" width="8" height="8" fill="#FDFDFD" />
<rect x="112" y="136" width="8" height="8" fill="#FDFDFD" />
</svg>